HIERARCHY
ROOT Hips
{
	OFFSET 0.000000 8.830580 0.000000
	CHANNELS 6 Xposition Yposition Zposition Zrotation Yrotation Xrotation 
	JOINT Spine
	{
		OFFSET 0.000000 0.010000 0.000000
		CHANNELS 3 Zrotation Yrotation Xrotation
		JOINT Spine1
		{
			OFFSET 0.000000 2.459130 0.000000
			CHANNELS 3 Zrotation Yrotation Xrotation
			JOINT Neck
			{
				OFFSET 0.000000 2.484630 0.000000
				CHANNELS 3 Zrotation Yrotation Xrotation
				JOINT Head_virtual
				{
					OFFSET 0.000000 0.000000 0.000000
					CHANNELS 3 Zrotation Yrotation Xrotation
					JOINT Head
					{
						OFFSET 0.000000 0.927525 0.000000
						CHANNELS 3 Zrotation Yrotation Xrotation
						End Site
						{
							OFFSET 0.000000 0.000000 0.000000
						}
					}
				}
				JOINT LeftUpArm_virtual
				{
					OFFSET 0.000000 0.000000 0.000000
					CHANNELS 3 Zrotation Yrotation Xrotation
					JOINT LeftUpArm
					{
						OFFSET 1.248820 0.000000 0.000000
						CHANNELS 3 Zrotation Yrotation Xrotation
						JOINT LeftForeArm
						{
							OFFSET 2.597580 0.000000 0.000000
							CHANNELS 3 Zrotation Yrotation Xrotation
							JOINT LeftHand
							{
								OFFSET 2.455420 0.000000 0.000000
								CHANNELS 3 Zrotation Yrotation Xrotation
								End Site
								{
									OFFSET 0.000000 0.000000 0.000000
								}
							}
						}
					}
				}
				JOINT RightUpArm_virtual
				{
					OFFSET -0.000000 -0.000000 -0.000000
					CHANNELS 3 Zrotation Yrotation Xrotation
					JOINT RightUpArm
					{
						OFFSET -1.248820 -0.000000 -0.000000
						CHANNELS 3 Zrotation Yrotation Xrotation
						JOINT RightForeArm
						{
							OFFSET -2.597580 -0.000000 -0.000000
							CHANNELS 3 Zrotation Yrotation Xrotation
							JOINT RightHand
							{
								OFFSET -2.455420 -0.000000 -0.000000
								CHANNELS 3 Zrotation Yrotation Xrotation
								End Site
								{
									OFFSET 0.000000 0.000000 0.000000
								}
							}
						}
					}
				}
			}
		}
	}
	JOINT LeftUpLeg
	{
		OFFSET 1.271939 0.000000 0.000000
		CHANNELS 3 Zrotation Yrotation Xrotation
		JOINT LeftLowLeg
		{
			OFFSET 0.000000 -4.342910 0.000000
			CHANNELS 3 Zrotation Yrotation Xrotation
			JOINT LeftFoot
			{
				OFFSET 0.000000 -4.487670 0.000000
				CHANNELS 3 Zrotation Yrotation Xrotation
				JOINT LeftToeBase
				{
					OFFSET 0.000000 0.000000 1.515070
					CHANNELS 3 Zrotation Yrotation Xrotation
					End Site
					{
						OFFSET 0.000000 0.000000 0.000000
					}
				}
			}
		}
	}
	JOINT RightUpLeg
	{
		OFFSET -1.271939 0.000000 0.000000
		CHANNELS 3 Zrotation Yrotation Xrotation
		JOINT RightLowLeg
		{
			OFFSET 0.000000 -4.342910 0.000000
			CHANNELS 3 Zrotation Yrotation Xrotation
			JOINT RightFoot
			{
				OFFSET 0.000000 -4.487670 0.000000
				CHANNELS 3 Zrotation Yrotation Xrotation
				JOINT RightToeBase
				{
					OFFSET 0.000000 0.000000 1.515070
					CHANNELS 3 Zrotation Yrotation Xrotation
					End Site
					{
						OFFSET 0.000000 0.000000 0.000000
					}
				}
			}
		}
	}
}
MOTION
Frames: 14
Frame Time: 0.041667
-22.512428 9.267987 51.270403 -173.147223 35.907119 -179.276469 1.207534 -6.621930 -22.912969 9.669945 -3.485526 33.196520 0.000000 0.000000 0.000000 -18.512751 6.639734 -1.019054 0.061134 14.357618 -62.119676 -33.554401 -1.680840 -7.997080 -37.188202 2.159670 38.458199 0.000000 -28.546900 0.000000 8.816410 7.427280 -1.878880 24.952200 -0.295726 -2.557710 38.771099 3.260110 14.837900 0.000000 23.813299 0.000000 -6.766220 -3.528550 -12.741600 7.273068 16.776791 10.498706 0.000000 0.000000 2.218460 -5.501614 8.657207 6.223118 0.000000 0.000000 -10.695770 8.387562 12.862131 9.658725 0.000000 0.000000 8.985620 15.795472 -20.941593 8.579062 0.000000 0.000000 -14.182177 
-22.513258 9.265232 51.265448 -173.122139 35.947764 -179.273562 1.194062 -6.617036 -22.856992 9.714502 -3.462558 33.219971 0.000000 0.000000 0.000000 -18.527260 6.627745 -1.050769 0.158372 14.300598 -62.184311 -33.570202 -1.572040 -8.041210 -37.220600 2.325070 38.486599 0.000000 -28.260401 0.000000 8.809620 7.280970 -1.927280 24.912800 -0.321008 -2.573930 38.760601 3.253070 14.842600 0.000000 23.777300 0.000000 -6.744660 -3.540920 -12.814500 7.256348 16.757552 10.374789 0.000000 0.000000 2.562910 -5.461583 8.747271 5.921254 0.000000 0.000000 -10.732950 8.438120 13.198869 9.711347 0.000000 0.000000 9.001550 16.024258 -21.028256 8.398738 0.000000 0.000000 -14.122983 
-22.514603 9.262887 51.258691 -173.126546 35.962332 -179.297405 1.169290 -6.609147 -22.825362 9.758129 -3.434760 33.271610 0.000000 0.000000 0.000000 -18.482204 6.567552 -1.065003 0.167816 14.277055 -62.284041 -33.578602 -1.547730 -8.084640 -37.275398 2.547980 38.356499 0.000000 -28.004200 0.000000 8.636180 7.231260 -1.971570 24.871500 -0.377791 -2.570470 38.744598 3.283120 14.932800 0.000000 23.690800 0.000000 -6.803920 -3.594590 -12.850400 7.185789 16.640288 10.200171 0.000000 0.000000 3.011090 -5.347282 8.962769 5.607433 0.000000 0.000000 -10.795450 8.434443 13.456188 9.824001 0.000000 0.000000 8.928780 16.325487 -21.001107 8.248082 0.000000 0.000000 -14.064189 
-22.517318 9.260929 51.249919 -173.122136 36.064260 -179.334252 1.234633 -6.429913 -22.848781 9.599467 -3.437976 33.431947 0.000000 0.000000 0.000000 -18.317924 6.456608 -1.149266 0.164858 14.294936 -62.359551 -33.516701 -1.508980 -8.171160 -37.318901 2.722660 38.297600 0.000000 -27.779400 0.000000 8.565700 7.249110 -1.858940 24.886200 -0.333174 -2.544680 38.757801 3.296980 14.998700 0.000000 23.603100 0.000000 -6.916160 -3.766460 -12.772300 7.139972 16.674946 10.075245 0.000000 0.000000 3.470800 -5.277598 9.074430 5.288221 0.000000 0.000000 -10.802340 8.469634 14.023310 9.966227 0.000000 0.000000 8.879730 16.730524 -21.072537 8.039647 0.000000 0.000000 -14.030317 
-22.520939 9.258975 51.238933 -173.086510 36.236904 -179.341920 1.389890 -6.096901 -22.913519 9.289271 -3.454866 33.640762 0.000000 0.000000 0.000000 -18.141598 6.386022 -1.260366 0.203612 14.347999 -62.428500 -33.386700 -1.460790 -8.293570 -37.356201 2.869450 38.361801 0.000000 -27.597500 0.000000 8.525620 7.277880 -1.984460 25.003500 -0.276904 -2.554840 38.708401 3.315450 14.912600 0.000000 23.420300 0.000000 -6.656940 -3.686740 -12.812700 7.064781 16.559682 9.949728 0.000000 0.000000 3.947060 -5.205044 9.405597 4.928924 0.000000 0.000000 -10.895370 8.442287 14.334598 10.122421 0.000000 0.000000 8.746820 17.080748 -20.898420 7.939817 0.000000 0.000000 -13.953210 
-22.525712 9.256162 51.222714 -173.077442 36.481330 -179.350287 1.661123 -5.574134 -23.030626 8.689973 -3.508030 33.808864 0.000000 0.000000 0.000000 -17.828454 6.279555 -1.270293 0.206656 14.536317 -62.509636 -33.133598 -1.365020 -8.382820 -37.430401 2.981620 38.368698 0.000000 -27.384600 0.000000 8.387610 7.276720 -2.012290 25.222401 -0.220715 -2.570250 38.674198 3.331980 15.076400 0.000000 23.141001 0.000000 -6.563090 -3.597940 -12.866900 6.906817 16.298211 9.855455 0.000000 0.000000 4.392600 -5.178095 9.928905 4.536179 0.000000 0.000000 -11.074580 8.505351 15.233990 10.284109 0.000000 0.000000 8.702140 17.476599 -21.173479 7.650585 0.000000 0.000000 -13.905440 
-22.532857 9.252882 51.206153 -173.014455 36.846007 -179.294964 1.970958 -5.023420 -23.112894 8.207737 -3.515604 33.901028 0.000000 0.000000 0.000000 -17.584660 6.132185 -1.197760 0.300257 14.622574 -62.627621 -33.008301 -1.311270 -8.485230 -37.418098 3.133080 38.493599 0.000000 -27.228701 0.000000 8.268610 7.243880 -2.160230 25.359800 -0.167658 -2.595990 38.644600 3.302910 15.184800 0.000000 22.979200 0.000000 -6.393350 -3.607850 -12.384400 6.830785 16.379766 9.731108 0.000000 0.000000 4.919900 -5.162723 10.181142 4.098747 0.000000 0.000000 -11.184650 8.508704 15.874637 10.346558 0.000000 0.000000 8.706960 17.785767 -21.215734 7.449855 0.000000 0.000000 -13.824590 
-22.541273 9.249105 51.186664 -172.946757 37.307260 -179.171365 2.290414 -4.456288 -23.210656 7.790014 -3.483972 33.923791 0.000000 0.000000 0.000000 -17.299914 5.927917 -1.099845 0.373602 14.699680 -62.658554 -32.949799 -1.235280 -8.587620 -37.404900 3.298530 38.582298 0.000000 -27.112700 0.000000 8.138440 7.261040 -2.256860 25.485001 -0.094972 -2.645880 38.572399 3.205630 15.319300 0.000000 22.760401 0.000000 -6.372930 -3.561850 -12.346500 6.629937 16.115530 9.567146 0.000000 0.000000 5.407160 -5.209730 10.854993 3.613337 0.000000 0.000000 -11.241850 8.446981 16.381572 10.326693 0.000000 0.000000 8.730410 17.924536 -21.165230 7.329671 0.000000 0.000000 -13.821540 
-22.553032 9.245476 51.163825 -172.854727 37.826749 -179.030012 2.733811 -3.736063 -23.338727 7.111665 -3.536242 34.023415 0.000000 0.000000 0.000000 -16.900671 5.659245 -1.043336 0.418937 14.815870 -62.700508 -32.734200 -1.153230 -8.816990 -37.487301 3.492850 38.741600 0.000000 -26.943399 0.000000 8.053320 7.242670 -2.435700 25.710899 0.039828 -2.739500 38.478100 3.108810 15.356900 0.000000 22.603001 0.000000 -6.173170 -3.609680 -12.266100 6.435537 15.981402 9.422610 0.000000 0.000000 5.893570 -5.218859 11.509020 3.171328 0.000000 0.000000 -11.144000 8.312864 16.682908 10.267915 0.000000 0.000000 8.781280 17.952763 -20.928329 7.312157 0.000000 0.000000 -13.785900 
-22.566577 9.242232 51.138164 -172.750281 38.386267 -178.898586 3.213017 -3.007520 -23.428391 6.404739 -3.619258 34.104545 0.000000 0.000000 0.000000 -16.375512 5.272509 -0.968206 0.439976 14.941881 -62.672776 -32.539398 -1.026760 -8.925310 -37.596699 3.552920 38.731899 0.000000 -26.732800 0.000000 7.793840 7.302270 -2.579130 25.990101 0.120815 -2.824270 38.307999 3.137910 15.511700 0.000000 22.396200 0.000000 -6.054460 -3.672160 -12.398900 6.293217 16.134042 9.357592 0.000000 0.000000 6.275350 -5.191327 11.947539 2.829237 0.000000 0.000000 -11.103290 8.127639 16.833941 10.189543 0.000000 0.000000 8.879270 17.928315 -20.543122 7.374733 0.000000 0.000000 -13.824450 
-22.582439 9.239757 51.109978 -172.626773 38.932211 -178.729178 3.663641 -2.420356 -23.500024 5.852210 -3.726671 34.155860 0.000000 0.000000 0.000000 -15.983817 4.905532 -0.825861 0.546367 14.965272 -62.706512 -32.384602 -1.006500 -9.180240 -37.771702 3.840050 38.733898 0.000000 -26.541401 0.000000 7.641130 7.238810 -2.788950 26.170099 0.181861 -2.824790 38.119499 3.259680 15.608800 0.000000 22.251801 0.000000 -6.005280 -3.767320 -12.297800 6.176660 16.441108 9.332277 0.000000 0.000000 6.537870 -5.140291 12.220778 2.568748 0.000000 0.000000 -11.106950 7.957635 17.105483 10.057064 0.000000 0.000000 9.046470 17.996899 -20.252953 7.398210 0.000000 0.000000 -13.871680 
-22.600877 9.237413 51.081255 -172.464654 39.583817 -178.493019 4.061328 -1.953743 -23.484772 5.619865 -3.759580 34.081383 0.000000 0.000000 0.000000 -15.668945 4.488226 -0.530606 0.618480 14.922884 -62.838849 -32.403801 -0.990670 -9.223230 -37.937801 3.946680 38.768101 0.000000 -26.328899 0.000000 7.414620 7.347420 -3.187800 26.252600 0.166491 -2.916190 37.863800 3.361960 15.775300 0.000000 22.114100 0.000000 -6.036180 -3.712000 -12.242400 6.101519 16.982757 9.386153 0.000000 0.000000 6.624260 -5.102803 12.334187 2.367373 0.000000 0.000000 -10.952290 7.772089 17.434502 9.783813 0.000000 0.000000 9.363140 18.018159 -19.943378 7.447066 0.000000 0.000000 -13.936450 
-22.621667 9.235648 51.049002 -172.295605 40.259489 -178.252062 4.574009 -1.423460 -23.514493 5.036492 -3.965113 34.114052 0.000000 0.000000 0.000000 -15.462255 4.308778 -0.418293 0.763940 14.945121 -62.867675 -32.190601 -0.915090 -9.409500 -38.213501 4.125650 38.840599 0.000000 -26.125299 0.000000 7.311440 7.354910 -3.742620 26.405001 0.354901 -2.948250 37.632999 3.473390 15.799100 0.000000 22.065201 0.000000 -6.012630 -3.747220 -11.983800 6.001066 17.468022 9.574879 0.000000 0.000000 6.466580 -5.045513 12.488591 2.283047 0.000000 0.000000 -10.851100 7.596295 17.916393 9.453652 0.000000 0.000000 9.818060 18.119671 -19.720052 7.439459 0.000000 0.000000 -14.050464 
-22.641486 9.233690 51.011360 -172.093233 41.149857 -177.958512 4.996948 -0.979343 -23.465833 4.925084 -3.986027 33.965210 0.000000 0.000000 0.000000 -15.322983 4.021490 -0.082887 0.852760 14.873893 -62.983037 -32.160099 -0.977556 -9.481270 -38.466801 4.408850 39.056499 0.000000 -26.043600 0.000000 7.159610 7.401990 -4.532300 26.393299 0.336560 -2.890310 37.327801 3.616020 15.771400 0.000000 22.106701 0.000000 -6.036920 -3.639570 -12.023700 5.907625 18.096101 9.945285 0.000000 0.000000 6.042670 -5.001509 12.651949 2.274147 0.000000 0.000000 -10.804150 7.369064 18.457129 9.071728 0.000000 0.000000 10.321900 18.318517 -19.325282 7.394645 0.000000 0.000000 -14.018223 
